<?xml version="1.0" standalone="no"?>
<!DOCTYPE svg PUBLIC "-//W3C//DTD SVG 20010904//EN"
 "http://www.w3.org/TR/2001/REC-SVG-20010904/DTD/svg10.dtd">
<svg version="1.0" xmlns="http://www.w3.org/2000/svg"
 width="256.000000pt" height="256.000000pt" viewBox="0 0 256.000000 256.000000"
 preserveAspectRatio="xMidYMid meet">
<metadata>
Created by potrace 1.14, written by Peter Selinger 2001-2017
</metadata>
<g transform="translate(0.000000,256.000000) scale(0.100000,-0.100000)"
fill="#000000" stroke="none">
<path d="M1342 2361 c-5 -3 -14 -16 -20 -27 -9 -18 -8 -25 9 -40 18 -16 19
-16 13 -1 -4 11 -1 17 8 17 8 0 15 -6 16 -12 0 -7 4 -48 8 -90 7 -82 0 -113
-41 -176 l-22 -33 -7 38 c-12 75 -7 157 13 194 19 35 14 69 -10 69 -6 0 -8 -4
-4 -9 3 -5 -4 -28 -16 -51 -19 -36 -21 -52 -17 -150 3 -71 2 -108 -5 -107 -6
1 -11 -41 -13 -108 -2 -60 -6 -150 -8 -200 -3 -56 0 -115 9 -155 7 -36 16 -81
19 -100 17 -105 85 -242 198 -395 65 -89 138 -199 138 -209 0 -2 8 -21 17 -42
21 -50 23 -57 30 -132 3 -35 1 -68 -5 -75 -5 -6 -12 -28 -16 -47 -19 -109
-134 -231 -240 -255 -134 -31 -254 20 -338 144 -18 25 -36 49 -42 53 -19 12
-20 135 -2 183 29 75 62 70 154 -24 26 -26 39 -38 30 -26 -32 39 -69 125 -75
173 -6 57 14 137 58 224 28 56 29 58 7 46 -26 -15 -48 -34 -48 -42 0 -2 -13
-20 -30 -38 -16 -18 -30 -38 -30 -44 0 -7 -4 -14 -8 -16 -11 -4 -63 -91 -103
-173 -30 -62 -34 -79 -34 -150 0 -70 4 -89 34 -153 19 -39 39 -72 44 -72 6 0
8 -3 4 -6 -3 -3 -1 -11 4 -18 5 -6 22 -29 37 -51 65 -92 165 -127 302 -107
101 14 177 51 245 119 84 84 125 185 125 308 0 141 -39 233 -208 487 -111 166
-153 252 -170 346 -5 30 -10 133 -10 230 -1 148 1 182 16 209 14 27 14 38 5
64 -10 27 -9 37 8 72 56 109 64 191 29 298 -20 61 -34 76 -58 60z m208 -1401
c0 -5 -2 -10 -4 -10 -3 0 -8 5 -11 10 -3 6 -1 10 4 10 6 0 11 -4 11 -10z"/>
</g>
</svg>
