<svg width="234" height="31" viewBox="0 0 234 31" fill="none" xmlns="http://www.w3.org/2000/svg">
<path fill-rule="evenodd" clip-rule="evenodd" d="M21 7.59508C92.476 1.41424 133.228 1.52261 207 7.59508V24.2057C133.208 29.2409 92.513 29.2886 21 24.2057V7.59508ZM43 12.5L97 10V22L43 19.5V12.5ZM129 22L183 19.5V12.5L129 10V22Z" fill="black"/>
<path d="M54 11.2994C54 33.2222 42.8191 34.953 27.2192 25.7222C13.4599 34.376 0 33.2223 0 11.2994C0 -10.6236 27.2192 6.10675 27.2192 6.10675C27.2192 6.10675 54 -10.6235 54 11.2994Z" fill="#878787"/>
<circle cx="26.5" cy="15.5" r="8.5" fill="#D9D9D9"/>
<circle cx="26.5" cy="15.5" r="3.5" fill="black"/>
<path d="M234 11.2994C234 33.2222 222.819 34.953 207.219 25.7222C193.46 34.376 180 33.2223 180 11.2994C180 -10.6236 207.219 6.10675 207.219 6.10675C207.219 6.10675 234 -10.6235 234 11.2994Z" fill="#878787"/>
<circle cx="206.5" cy="15.5" r="8.5" fill="#D9D9D9"/>
<circle cx="206.5" cy="15.5" r="3.5" fill="black"/>
</svg>
