<svg width="745" height="708" viewBox="0 0 745 708" fill="none" xmlns="http://www.w3.org/2000/svg">
<path d="M336.703 165.503C380.5 140.503 402.912 131.93 336.703 160.316C270.689 188.618 201.742 239.478 55.8834 685.373C55.1486 687.619 56.0578 690.167 58.1045 691.349L62.4042 693.831C65.1521 695.418 68.7134 693.925 69.7066 690.912C229.947 204.713 293.085 190.401 336.703 165.503Z" fill="#2B2B2B"/>
<path d="M129.21 572.032C240.501 189.505 285.5 145 579.502 99.0038" stroke="black"/>
<path fill-rule="evenodd" clip-rule="evenodd" d="M377.5 149.003C378.328 149.003 379 147.66 379 146.003C379 144.346 378.328 143.003 377.5 143.003C376.672 143.003 376 144.346 376 146.003C376 147.66 376.672 149.003 377.5 149.003ZM377.5 148.403C378.163 148.403 378.7 147.329 378.7 146.003C378.7 144.678 378.163 143.603 377.5 143.603C376.837 143.603 376.3 144.678 376.3 146.003C376.3 147.329 376.837 148.403 377.5 148.403Z" fill="#2B2B2B"/>
<path fill-rule="evenodd" clip-rule="evenodd" d="M356.5 160.003C357.328 160.003 358 158.66 358 157.003C358 155.346 357.328 154.003 356.5 154.003C355.672 154.003 355 155.346 355 157.003C355 158.66 355.672 160.003 356.5 160.003ZM356.5 159.403C357.163 159.403 357.7 158.329 357.7 157.003C357.7 155.678 357.163 154.603 356.5 154.603C355.837 154.603 355.3 155.678 355.3 157.003C355.3 158.329 355.837 159.403 356.5 159.403Z" fill="#2B2B2B"/>
<path fill-rule="evenodd" clip-rule="evenodd" d="M206.192 343.307C208.401 343.307 210.192 341.068 210.192 338.307C210.192 335.545 208.401 333.307 206.192 333.307C203.983 333.307 202.192 335.545 202.192 338.307C202.192 341.068 203.983 343.307 206.192 343.307ZM206.192 342.307C207.959 342.307 209.392 340.516 209.392 338.307C209.392 336.098 207.959 334.307 206.192 334.307C204.425 334.307 202.992 336.098 202.992 338.307C202.992 340.516 204.425 342.307 206.192 342.307Z" fill="#2B2B2B"/>
<path fill-rule="evenodd" clip-rule="evenodd" d="M167.192 440.307C170.506 440.307 173.192 436.949 173.192 432.807C173.192 428.665 170.506 425.307 167.192 425.307C163.878 425.307 161.192 428.665 161.192 432.807C161.192 436.949 163.878 440.307 167.192 440.307ZM167.192 438.807C169.843 438.807 171.992 436.121 171.992 432.807C171.992 429.493 169.843 426.807 167.192 426.807C164.541 426.807 162.392 429.493 162.392 432.807C162.392 436.121 164.541 438.807 167.192 438.807Z" fill="#2B2B2B"/>
<path fill-rule="evenodd" clip-rule="evenodd" d="M245.192 268.307C246.849 268.307 248.192 266.292 248.192 263.807C248.192 261.321 246.849 259.307 245.192 259.307C243.535 259.307 242.192 261.321 242.192 263.807C242.192 266.292 243.535 268.307 245.192 268.307ZM245.192 267.407C246.518 267.407 247.592 265.795 247.592 263.807C247.592 261.818 246.518 260.207 245.192 260.207C243.867 260.207 242.792 261.818 242.792 263.807C242.792 265.795 243.867 267.407 245.192 267.407Z" fill="#2B2B2B"/>
<path fill-rule="evenodd" clip-rule="evenodd" d="M280 216.003C281.105 216.003 282 214.436 282 212.503C282 210.57 281.105 209.003 280 209.003C278.895 209.003 278 210.57 278 212.503C278 214.436 278.895 216.003 280 216.003ZM280 215.303C280.884 215.303 281.6 214.05 281.6 212.503C281.6 210.957 280.884 209.703 280 209.703C279.116 209.703 278.4 210.957 278.4 212.503C278.4 214.05 279.116 215.303 280 215.303Z" fill="#2B2B2B"/>
<path fill-rule="evenodd" clip-rule="evenodd" d="M318 182.003C319.105 182.003 320 180.436 320 178.503C320 176.57 319.105 175.003 318 175.003C316.895 175.003 316 176.57 316 178.503C316 180.436 316.895 182.003 318 182.003ZM318 181.303C318.884 181.303 319.6 180.05 319.6 178.503C319.6 176.957 318.884 175.703 318 175.703C317.116 175.703 316.4 176.957 316.4 178.503C316.4 180.05 317.116 181.303 318 181.303Z" fill="#2B2B2B"/>
<circle cx="129.193" cy="570.307" r="25" fill="#2B2B2B"/>
<line x1="591.948" y1="97.5027" x2="744.948" y2="81.5027" stroke="black"/>
<line x1="576.417" y1="86.7242" x2="581.933" y2="95.0651" stroke="black"/>
<line x1="594.168" y1="86.2364" x2="589.44" y2="95.0485" stroke="black"/>
<line x1="585.672" y1="84.0086" x2="585.5" y2="94.0071" stroke="black"/>
<line y1="-0.5" x2="10" y2="-0.5" transform="matrix(0.366544 -0.930401 -0.930401 -0.366544 578 112.304)" stroke="black"/>
<line y1="-0.5" x2="10" y2="-0.5" transform="matrix(-0.472716 -0.881215 -0.881215 0.472716 594.727 111.812)" stroke="black"/>
<line y1="-0.5" x2="10" y2="-0.5" transform="matrix(-0.161799 -0.986824 -0.986824 0.161799 587.618 113.868)" stroke="black"/>
<path d="M130.346 568.2C132.14 566.4 150.084 570 160.851 568.2C171.617 566.401 171.617 573.601 160.851 571.8C150.084 570 132.14 573.6 130.346 571.8C128.552 570.001 128.551 570.001 130.346 568.2Z" fill="#D9D9D9"/>
<ellipse cx="168.028" cy="570" rx="8.97204" ry="9" fill="#838383"/>
<path d="M167.6 563.608C167.679 563.123 168.377 563.123 168.456 563.608L168.714 565.175C168.777 565.559 169.274 565.673 169.498 565.354L170.407 564.054C170.689 563.651 171.317 563.953 171.179 564.425L170.732 565.953C170.623 566.327 171.022 566.644 171.361 566.454L172.746 565.677C173.175 565.436 173.61 565.98 173.281 566.346L172.214 567.532C171.954 567.821 172.175 568.28 172.563 568.256L174.153 568.158C174.643 568.128 174.798 568.807 174.344 568.993L172.866 569.598C172.507 569.746 172.507 570.254 172.866 570.402L174.344 571.007C174.798 571.193 174.643 571.872 174.153 571.842L172.563 571.744C172.175 571.72 171.954 572.179 172.214 572.468L173.281 573.654C173.61 574.02 173.175 574.564 172.746 574.323L171.361 573.546C171.022 573.356 170.623 573.673 170.732 574.047L171.179 575.575C171.317 576.047 170.689 576.349 170.407 575.946L169.498 574.646C169.274 574.327 168.777 574.441 168.714 574.825L168.456 576.392C168.377 576.877 167.679 576.877 167.6 576.392L167.342 574.825C167.279 574.441 166.781 574.327 166.558 574.646L165.649 575.946C165.367 576.349 164.738 576.047 164.876 575.575L165.324 574.047C165.433 573.673 165.034 573.356 164.695 573.546L163.309 574.323C162.881 574.564 162.446 574.02 162.774 573.654L163.842 572.468C164.102 572.179 163.881 571.72 163.493 571.744L161.903 571.842C161.413 571.872 161.258 571.193 161.712 571.007L163.189 570.402C163.549 570.254 163.549 569.746 163.189 569.598L161.712 568.993C161.258 568.807 161.413 568.128 161.903 568.158L163.493 568.256C163.881 568.28 164.102 567.821 163.842 567.532L162.774 566.346C162.446 565.98 162.881 565.436 163.309 565.677L164.695 566.454C165.034 566.644 165.433 566.327 165.324 565.953L164.876 564.425C164.738 563.953 165.367 563.651 165.649 564.054L166.558 565.354C166.781 565.673 167.279 565.559 167.342 565.175L167.6 563.608Z" fill="#D9D9D9"/>
<path d="M62.8547 679.677C64.5503 678.109 67.3073 678.965 67.8173 681.217L70.8776 694.732C71.3876 696.984 69.2681 698.944 67.0625 698.259L53.8287 694.152C51.623 693.468 50.9855 690.652 52.6811 689.085L62.8547 679.677Z" fill="#2B2B2B"/>
</svg>
